<mxfile host="app.diagrams.net" modified="2020-10-27T01:23:02.369Z" agent="5.0 (Windows NT 10.0; Win64; x64) AppleWebKit/537.36 (KHTML, like Gecko) Chrome/86.0.4240.111 Safari/537.36" etag="Gp1WdVXgYuyNc0_sBLAk" version="13.8.3" type="github">
  <diagram id="ULqLL0iAYyweosPxVLat" name="Page-1">
    <mxGraphModel dx="3128" dy="1612" grid="1" gridSize="10" guides="1" tooltips="1" connect="1" arrows="1" fold="1" page="1" pageScale="1" pageWidth="850" pageHeight="1100" math="0" shadow="0">
      <root>
        <mxCell id="0" />
        <mxCell id="1" parent="0" />
        <mxCell id="RYeYa1yaHJqIqfBynArc-87" value="" style="rounded=0;whiteSpace=wrap;html=1;" vertex="1" parent="1">
          <mxGeometry x="200" y="1420" width="320" height="180" as="geometry" />
        </mxCell>
        <mxCell id="RYeYa1yaHJqIqfBynArc-84" value="&lt;div style=&quot;text-align: right&quot;&gt;&lt;b&gt;&amp;nbsp; Input Image&lt;/b&gt;&lt;/div&gt;&lt;b&gt;&lt;br&gt;&lt;div style=&quot;text-align: center&quot;&gt;&lt;b&gt;&amp;nbsp;(3*56*56)&lt;/b&gt;&lt;/div&gt;&lt;/b&gt;" style="rounded=0;whiteSpace=wrap;html=1;align=left;" vertex="1" parent="1">
          <mxGeometry x="40" y="1390" width="90" height="240" as="geometry" />
        </mxCell>
        <mxCell id="RYeYa1yaHJqIqfBynArc-85" value="&lt;b&gt;3*3 Convonutional layer&lt;/b&gt;" style="shape=cube;whiteSpace=wrap;html=1;boundedLbl=1;backgroundOutline=1;darkOpacity=0.05;darkOpacity2=0.1;" vertex="1" parent="1">
          <mxGeometry x="230" y="1470" width="120" height="80" as="geometry" />
        </mxCell>
        <mxCell id="RYeYa1yaHJqIqfBynArc-86" value="BaseNormalization and Relu Block" style="rounded=0;whiteSpace=wrap;html=1;" vertex="1" parent="1">
          <mxGeometry x="380" y="1480" width="120" height="60" as="geometry" />
        </mxCell>
        <mxCell id="RYeYa1yaHJqIqfBynArc-88" value="&lt;b&gt;&lt;font style=&quot;font-size: 15px&quot;&gt;STEM&lt;/font&gt;&lt;/b&gt;" style="text;html=1;strokeColor=none;fillColor=none;align=center;verticalAlign=middle;whiteSpace=wrap;rounded=0;" vertex="1" parent="1">
          <mxGeometry x="330" y="1430" width="40" height="20" as="geometry" />
        </mxCell>
        <mxCell id="RYeYa1yaHJqIqfBynArc-89" value="" style="rounded=0;whiteSpace=wrap;html=1;" vertex="1" parent="1">
          <mxGeometry x="590" y="1420" width="200" height="170" as="geometry" />
        </mxCell>
        <mxCell id="RYeYa1yaHJqIqfBynArc-93" value="&lt;div style=&quot;background-color: rgb(255 , 255 , 254) ; font-family: monospace , &amp;#34;consolas&amp;#34; , &amp;#34;courier new&amp;#34; , monospace ; font-size: 14px ; line-height: 19px&quot;&gt;&lt;b&gt;Adaptive&lt;/b&gt;&lt;/div&gt;&lt;div style=&quot;background-color: rgb(255 , 255 , 254) ; font-family: monospace , &amp;#34;consolas&amp;#34; , &amp;#34;courier new&amp;#34; , monospace ; font-size: 14px ; line-height: 19px&quot;&gt;&lt;b&gt;Avg&lt;/b&gt;&lt;/div&gt;&lt;div style=&quot;background-color: rgb(255 , 255 , 254) ; font-family: monospace , &amp;#34;consolas&amp;#34; , &amp;#34;courier new&amp;#34; , monospace ; font-size: 14px ; line-height: 19px&quot;&gt;&lt;b&gt;Pool2d&lt;/b&gt;&lt;/div&gt;" style="rounded=0;whiteSpace=wrap;html=1;align=center;" vertex="1" parent="1">
          <mxGeometry x="2890" y="1320" width="80" height="360" as="geometry" />
        </mxCell>
        <mxCell id="RYeYa1yaHJqIqfBynArc-94" value="&lt;b&gt;&lt;font style=&quot;font-size: 15px&quot;&gt;LAYER 1&lt;/font&gt;&lt;/b&gt;" style="text;html=1;strokeColor=none;fillColor=none;align=center;verticalAlign=middle;whiteSpace=wrap;rounded=0;" vertex="1" parent="1">
          <mxGeometry x="651" y="1430" width="70" height="20" as="geometry" />
        </mxCell>
        <mxCell id="RYeYa1yaHJqIqfBynArc-95" value="&lt;b&gt;&lt;font style=&quot;font-size: 14px&quot;&gt;Standard Block with Stride=1&lt;/font&gt;&lt;/b&gt;" style="rounded=0;whiteSpace=wrap;html=1;" vertex="1" parent="1">
          <mxGeometry x="626" y="1475" width="120" height="60" as="geometry" />
        </mxCell>
        <mxCell id="RYeYa1yaHJqIqfBynArc-97" value="" style="rounded=0;whiteSpace=wrap;html=1;" vertex="1" parent="1">
          <mxGeometry x="850" y="1422" width="200" height="170" as="geometry" />
        </mxCell>
        <mxCell id="RYeYa1yaHJqIqfBynArc-98" value="&lt;b&gt;&lt;font style=&quot;font-size: 15px&quot;&gt;LAYER 2&lt;/font&gt;&lt;/b&gt;" style="text;html=1;strokeColor=none;fillColor=none;align=center;verticalAlign=middle;whiteSpace=wrap;rounded=0;" vertex="1" parent="1">
          <mxGeometry x="911" y="1432" width="70" height="20" as="geometry" />
        </mxCell>
        <mxCell id="RYeYa1yaHJqIqfBynArc-99" value="&lt;b&gt;&lt;font style=&quot;font-size: 14px&quot;&gt;DownSample Block with Stride=1&lt;/font&gt;&lt;/b&gt;" style="rounded=0;whiteSpace=wrap;html=1;" vertex="1" parent="1">
          <mxGeometry x="886" y="1477" width="120" height="60" as="geometry" />
        </mxCell>
        <mxCell id="RYeYa1yaHJqIqfBynArc-100" value="" style="rounded=0;whiteSpace=wrap;html=1;" vertex="1" parent="1">
          <mxGeometry x="1120" y="1420" width="580" height="170" as="geometry" />
        </mxCell>
        <mxCell id="RYeYa1yaHJqIqfBynArc-101" value="&lt;b&gt;&lt;font style=&quot;font-size: 15px&quot;&gt;LAYER 3&lt;/font&gt;&lt;/b&gt;" style="text;html=1;strokeColor=none;fillColor=none;align=center;verticalAlign=middle;whiteSpace=wrap;rounded=0;" vertex="1" parent="1">
          <mxGeometry x="1370" y="1430" width="70" height="20" as="geometry" />
        </mxCell>
        <mxCell id="RYeYa1yaHJqIqfBynArc-102" value="&lt;b&gt;&lt;font style=&quot;font-size: 14px&quot;&gt;Standard Block with Stride=1&lt;/font&gt;&lt;/b&gt;" style="rounded=0;whiteSpace=wrap;html=1;" vertex="1" parent="1">
          <mxGeometry x="1420" y="1475" width="120" height="60" as="geometry" />
        </mxCell>
        <mxCell id="RYeYa1yaHJqIqfBynArc-109" value="&lt;b&gt;&lt;font style=&quot;font-size: 14px&quot;&gt;Standard Block with Stride=1&lt;/font&gt;&lt;/b&gt;" style="rounded=0;whiteSpace=wrap;html=1;" vertex="1" parent="1">
          <mxGeometry x="1275" y="1475" width="120" height="60" as="geometry" />
        </mxCell>
        <mxCell id="RYeYa1yaHJqIqfBynArc-110" value="&lt;b&gt;&lt;font style=&quot;font-size: 14px&quot;&gt;DownSample Block with Stride=1&lt;/font&gt;&lt;/b&gt;" style="rounded=0;whiteSpace=wrap;html=1;" vertex="1" parent="1">
          <mxGeometry x="1140" y="1475" width="120" height="60" as="geometry" />
        </mxCell>
        <mxCell id="RYeYa1yaHJqIqfBynArc-111" value="&lt;b&gt;&lt;font style=&quot;font-size: 14px&quot;&gt;Standard Block with Stride=1&lt;/font&gt;&lt;/b&gt;" style="rounded=0;whiteSpace=wrap;html=1;" vertex="1" parent="1">
          <mxGeometry x="1560" y="1475" width="120" height="60" as="geometry" />
        </mxCell>
        <mxCell id="RYeYa1yaHJqIqfBynArc-112" value="" style="rounded=0;whiteSpace=wrap;html=1;" vertex="1" parent="1">
          <mxGeometry x="1770" y="1419" width="1020" height="170" as="geometry" />
        </mxCell>
        <mxCell id="RYeYa1yaHJqIqfBynArc-113" value="&lt;b&gt;&lt;font style=&quot;font-size: 15px&quot;&gt;LAYER 4&lt;/font&gt;&lt;/b&gt;" style="text;html=1;strokeColor=none;fillColor=none;align=center;verticalAlign=middle;whiteSpace=wrap;rounded=0;" vertex="1" parent="1">
          <mxGeometry x="2180" y="1432" width="70" height="20" as="geometry" />
        </mxCell>
        <mxCell id="RYeYa1yaHJqIqfBynArc-114" value="&lt;b&gt;&lt;font style=&quot;font-size: 14px&quot;&gt;Standard Block with Stride=1&lt;/font&gt;&lt;/b&gt;" style="rounded=0;whiteSpace=wrap;html=1;" vertex="1" parent="1">
          <mxGeometry x="2100" y="1474" width="120" height="60" as="geometry" />
        </mxCell>
        <mxCell id="RYeYa1yaHJqIqfBynArc-115" value="&lt;b&gt;&lt;font style=&quot;font-size: 14px&quot;&gt;Standard Block with Stride=1&lt;/font&gt;&lt;/b&gt;" style="rounded=0;whiteSpace=wrap;html=1;" vertex="1" parent="1">
          <mxGeometry x="1950" y="1474" width="120" height="60" as="geometry" />
        </mxCell>
        <mxCell id="RYeYa1yaHJqIqfBynArc-116" value="&lt;b&gt;&lt;font style=&quot;font-size: 14px&quot;&gt;DownSample Block with Stride=1&lt;/font&gt;&lt;/b&gt;" style="rounded=0;whiteSpace=wrap;html=1;" vertex="1" parent="1">
          <mxGeometry x="1800" y="1474" width="120" height="60" as="geometry" />
        </mxCell>
        <mxCell id="RYeYa1yaHJqIqfBynArc-117" value="&lt;b&gt;&lt;font style=&quot;font-size: 14px&quot;&gt;Standard Block with Stride=1&lt;/font&gt;&lt;/b&gt;" style="rounded=0;whiteSpace=wrap;html=1;" vertex="1" parent="1">
          <mxGeometry x="2240" y="1474" width="120" height="60" as="geometry" />
        </mxCell>
        <mxCell id="RYeYa1yaHJqIqfBynArc-118" value="&lt;b&gt;&lt;font style=&quot;font-size: 14px&quot;&gt;Standard Block with Stride=1&lt;/font&gt;&lt;/b&gt;" style="rounded=0;whiteSpace=wrap;html=1;" vertex="1" parent="1">
          <mxGeometry x="2380" y="1474" width="120" height="60" as="geometry" />
        </mxCell>
        <mxCell id="RYeYa1yaHJqIqfBynArc-119" value="&lt;b&gt;&lt;font style=&quot;font-size: 14px&quot;&gt;Standard Block with Stride=1&lt;/font&gt;&lt;/b&gt;" style="rounded=0;whiteSpace=wrap;html=1;" vertex="1" parent="1">
          <mxGeometry x="2650" y="1474" width="120" height="60" as="geometry" />
        </mxCell>
        <mxCell id="RYeYa1yaHJqIqfBynArc-120" value="&lt;b&gt;&lt;font style=&quot;font-size: 14px&quot;&gt;Standard Block with Stride=1&lt;/font&gt;&lt;/b&gt;" style="rounded=0;whiteSpace=wrap;html=1;" vertex="1" parent="1">
          <mxGeometry x="2520" y="1474" width="120" height="60" as="geometry" />
        </mxCell>
        <mxCell id="RYeYa1yaHJqIqfBynArc-121" value="" style="rounded=0;whiteSpace=wrap;html=1;" vertex="1" parent="1">
          <mxGeometry x="2160" y="430" width="450" height="820" as="geometry" />
        </mxCell>
        <mxCell id="RYeYa1yaHJqIqfBynArc-122" value="&lt;span style=&quot;color: rgba(0 , 0 , 0 , 0) ; font-family: monospace ; font-size: 0px&quot;&gt;%3CmxGraphModel%3E%3Croot%3E%3CmxCell%20id%3D%220%22%2F%3E%3CmxCell%20id%3D%221%22%20parent%3D%220%22%2F%3E%3CmxCell%20id%3D%222%22%20value%3D%22Base%20normalization%20and%20Relu%20block%22%20style%3D%22rounded%3D0%3BwhiteSpace%3Dwrap%3Bhtml%3D1%3B%22%20vertex%3D%221%22%20parent%3D%221%22%3E%3CmxGeometry%20x%3D%2288%22%20y%3D%22150%22%20width%3D%22120%22%20height%3D%2260%22%20as%3D%22geometry%22%2F%3E%3C%2FmxCell%3E%3C%2Froot%3E%3C%2FmxGraphModel%3E&lt;/span&gt;" style="rounded=0;whiteSpace=wrap;html=1;" vertex="1" parent="1">
          <mxGeometry x="2222.5" y="524" width="210" height="451" as="geometry" />
        </mxCell>
        <mxCell id="RYeYa1yaHJqIqfBynArc-123" style="edgeStyle=orthogonalEdgeStyle;rounded=0;orthogonalLoop=1;jettySize=auto;html=1;exitX=0.5;exitY=1;exitDx=0;exitDy=0;entryX=0.5;entryY=0;entryDx=0;entryDy=0;" edge="1" source="RYeYa1yaHJqIqfBynArc-124" target="RYeYa1yaHJqIqfBynArc-130" parent="1">
          <mxGeometry relative="1" as="geometry" />
        </mxCell>
        <mxCell id="RYeYa1yaHJqIqfBynArc-124" value="&lt;b&gt;1*1 convolution layer&lt;/b&gt;" style="rounded=0;whiteSpace=wrap;html=1;" vertex="1" parent="1">
          <mxGeometry x="2255" y="544" width="145" height="42" as="geometry" />
        </mxCell>
        <mxCell id="RYeYa1yaHJqIqfBynArc-125" style="edgeStyle=orthogonalEdgeStyle;rounded=0;orthogonalLoop=1;jettySize=auto;html=1;exitX=0.5;exitY=1;exitDx=0;exitDy=0;entryX=0.5;entryY=0;entryDx=0;entryDy=0;" edge="1" source="RYeYa1yaHJqIqfBynArc-126" target="RYeYa1yaHJqIqfBynArc-132" parent="1">
          <mxGeometry relative="1" as="geometry" />
        </mxCell>
        <mxCell id="RYeYa1yaHJqIqfBynArc-126" value="&lt;b&gt;3*3 convolution layer&lt;/b&gt;" style="rounded=0;whiteSpace=wrap;html=1;" vertex="1" parent="1">
          <mxGeometry x="2250" y="706" width="145" height="42" as="geometry" />
        </mxCell>
        <mxCell id="RYeYa1yaHJqIqfBynArc-127" style="edgeStyle=orthogonalEdgeStyle;rounded=0;orthogonalLoop=1;jettySize=auto;html=1;exitX=0.5;exitY=1;exitDx=0;exitDy=0;entryX=0.5;entryY=0;entryDx=0;entryDy=0;" edge="1" source="RYeYa1yaHJqIqfBynArc-139" target="RYeYa1yaHJqIqfBynArc-136" parent="1">
          <mxGeometry relative="1" as="geometry" />
        </mxCell>
        <mxCell id="RYeYa1yaHJqIqfBynArc-128" value="&lt;b&gt;1*1 convolution layer&lt;/b&gt;" style="rounded=0;whiteSpace=wrap;html=1;" vertex="1" parent="1">
          <mxGeometry x="2250" y="896" width="145" height="42" as="geometry" />
        </mxCell>
        <mxCell id="RYeYa1yaHJqIqfBynArc-129" style="edgeStyle=orthogonalEdgeStyle;rounded=0;orthogonalLoop=1;jettySize=auto;html=1;exitX=0.5;exitY=1;exitDx=0;exitDy=0;entryX=0.5;entryY=0;entryDx=0;entryDy=0;" edge="1" source="RYeYa1yaHJqIqfBynArc-130" target="RYeYa1yaHJqIqfBynArc-126" parent="1">
          <mxGeometry relative="1" as="geometry" />
        </mxCell>
        <mxCell id="RYeYa1yaHJqIqfBynArc-130" value="Base normalization and Relu block" style="rounded=0;whiteSpace=wrap;html=1;" vertex="1" parent="1">
          <mxGeometry x="2268" y="626" width="120" height="50" as="geometry" />
        </mxCell>
        <mxCell id="RYeYa1yaHJqIqfBynArc-131" style="edgeStyle=orthogonalEdgeStyle;rounded=0;orthogonalLoop=1;jettySize=auto;html=1;exitX=0.5;exitY=1;exitDx=0;exitDy=0;" edge="1" source="RYeYa1yaHJqIqfBynArc-132" target="RYeYa1yaHJqIqfBynArc-128" parent="1">
          <mxGeometry relative="1" as="geometry" />
        </mxCell>
        <mxCell id="RYeYa1yaHJqIqfBynArc-132" value="Base normalization and Relu block" style="rounded=0;whiteSpace=wrap;html=1;" vertex="1" parent="1">
          <mxGeometry x="2262.5" y="796" width="120" height="50" as="geometry" />
        </mxCell>
        <mxCell id="RYeYa1yaHJqIqfBynArc-133" style="edgeStyle=orthogonalEdgeStyle;rounded=0;orthogonalLoop=1;jettySize=auto;html=1;exitX=0.5;exitY=1;exitDx=0;exitDy=0;" edge="1" source="RYeYa1yaHJqIqfBynArc-135" target="RYeYa1yaHJqIqfBynArc-124" parent="1">
          <mxGeometry relative="1" as="geometry" />
        </mxCell>
        <mxCell id="RYeYa1yaHJqIqfBynArc-134" style="edgeStyle=orthogonalEdgeStyle;rounded=0;orthogonalLoop=1;jettySize=auto;html=1;entryX=0.5;entryY=0;entryDx=0;entryDy=0;" edge="1" target="RYeYa1yaHJqIqfBynArc-145" parent="1">
          <mxGeometry relative="1" as="geometry">
            <mxPoint x="2327" y="510" as="sourcePoint" />
          </mxGeometry>
        </mxCell>
        <mxCell id="RYeYa1yaHJqIqfBynArc-135" value="&lt;b&gt;INPUT&lt;/b&gt;" style="rounded=0;whiteSpace=wrap;html=1;" vertex="1" parent="1">
          <mxGeometry x="2264" y="465" width="125" height="30" as="geometry" />
        </mxCell>
        <mxCell id="RYeYa1yaHJqIqfBynArc-136" value="&lt;b&gt;OUTPUT&lt;/b&gt;" style="rounded=0;whiteSpace=wrap;html=1;" vertex="1" parent="1">
          <mxGeometry x="2261" y="1145" width="123" height="30" as="geometry" />
        </mxCell>
        <mxCell id="RYeYa1yaHJqIqfBynArc-137" value="&lt;b&gt;(W,R,R)&lt;/b&gt;" style="text;html=1;strokeColor=none;fillColor=none;align=center;verticalAlign=middle;whiteSpace=wrap;rounded=0;" vertex="1" parent="1">
          <mxGeometry x="2404" y="465" width="80" height="25" as="geometry" />
        </mxCell>
        <mxCell id="RYeYa1yaHJqIqfBynArc-138" value="&lt;b&gt;(W,R/2,R/2)&lt;/b&gt;" style="text;html=1;strokeColor=none;fillColor=none;align=center;verticalAlign=middle;whiteSpace=wrap;rounded=0;" vertex="1" parent="1">
          <mxGeometry x="2400" y="1085" width="80" height="25" as="geometry" />
        </mxCell>
        <mxCell id="RYeYa1yaHJqIqfBynArc-139" value="&lt;b&gt;RELU&lt;/b&gt;" style="rounded=0;whiteSpace=wrap;html=1;" vertex="1" parent="1">
          <mxGeometry x="2262.5" y="1080" width="120" height="30" as="geometry" />
        </mxCell>
        <mxCell id="RYeYa1yaHJqIqfBynArc-140" style="edgeStyle=orthogonalEdgeStyle;rounded=0;orthogonalLoop=1;jettySize=auto;html=1;exitX=0.5;exitY=1;exitDx=0;exitDy=0;entryX=0.5;entryY=0;entryDx=0;entryDy=0;" edge="1" source="RYeYa1yaHJqIqfBynArc-141" target="RYeYa1yaHJqIqfBynArc-139" parent="1">
          <mxGeometry relative="1" as="geometry">
            <mxPoint x="2322.5" y="938" as="sourcePoint" />
            <mxPoint x="2322.5" y="1085" as="targetPoint" />
            <Array as="points">
              <mxPoint x="2323" y="1005" />
              <mxPoint x="2323" y="1005" />
            </Array>
          </mxGeometry>
        </mxCell>
        <mxCell id="RYeYa1yaHJqIqfBynArc-141" value="&lt;b&gt;ADD&lt;/b&gt;" style="rounded=0;whiteSpace=wrap;html=1;" vertex="1" parent="1">
          <mxGeometry x="2297.5" y="1025" width="50" height="30" as="geometry" />
        </mxCell>
        <mxCell id="RYeYa1yaHJqIqfBynArc-142" style="edgeStyle=orthogonalEdgeStyle;rounded=0;orthogonalLoop=1;jettySize=auto;html=1;exitX=0.5;exitY=1;exitDx=0;exitDy=0;entryX=0.5;entryY=0;entryDx=0;entryDy=0;" edge="1" source="RYeYa1yaHJqIqfBynArc-128" target="RYeYa1yaHJqIqfBynArc-141" parent="1">
          <mxGeometry relative="1" as="geometry">
            <mxPoint x="2322.5" y="938" as="sourcePoint" />
            <mxPoint x="2323" y="1025" as="targetPoint" />
            <Array as="points" />
          </mxGeometry>
        </mxCell>
        <mxCell id="RYeYa1yaHJqIqfBynArc-143" value="&lt;b&gt;&lt;font style=&quot;font-size: 14px&quot;&gt;DownSample&lt;/font&gt;&lt;/b&gt;&lt;b&gt;&lt;font style=&quot;font-size: 14px&quot;&gt;&amp;nbsp;Block with stride=2&lt;br&gt;&lt;br&gt;&lt;/font&gt;&lt;/b&gt;" style="text;html=1;strokeColor=none;fillColor=none;align=center;verticalAlign=middle;whiteSpace=wrap;rounded=0;" vertex="1" parent="1">
          <mxGeometry x="2270" y="1209" width="150" height="20" as="geometry" />
        </mxCell>
        <mxCell id="RYeYa1yaHJqIqfBynArc-144" style="edgeStyle=orthogonalEdgeStyle;rounded=0;orthogonalLoop=1;jettySize=auto;html=1;exitX=0.5;exitY=1;exitDx=0;exitDy=0;entryX=0.5;entryY=0;entryDx=0;entryDy=0;" edge="1" source="RYeYa1yaHJqIqfBynArc-145" target="RYeYa1yaHJqIqfBynArc-147" parent="1">
          <mxGeometry relative="1" as="geometry" />
        </mxCell>
        <mxCell id="RYeYa1yaHJqIqfBynArc-145" value="1*1 convolution layer" style="rounded=0;whiteSpace=wrap;html=1;" vertex="1" parent="1">
          <mxGeometry x="2460" y="766" width="120" height="30" as="geometry" />
        </mxCell>
        <mxCell id="RYeYa1yaHJqIqfBynArc-146" style="edgeStyle=orthogonalEdgeStyle;rounded=0;orthogonalLoop=1;jettySize=auto;html=1;exitX=0.5;exitY=1;exitDx=0;exitDy=0;entryX=1;entryY=0.5;entryDx=0;entryDy=0;" edge="1" source="RYeYa1yaHJqIqfBynArc-147" target="RYeYa1yaHJqIqfBynArc-141" parent="1">
          <mxGeometry relative="1" as="geometry" />
        </mxCell>
        <mxCell id="RYeYa1yaHJqIqfBynArc-147" value="Base Normilization" style="rounded=0;whiteSpace=wrap;html=1;" vertex="1" parent="1">
          <mxGeometry x="2460" y="877" width="120" height="23" as="geometry" />
        </mxCell>
        <mxCell id="RYeYa1yaHJqIqfBynArc-148" value="" style="rounded=0;whiteSpace=wrap;html=1;" vertex="1" parent="1">
          <mxGeometry x="950" y="420" width="430" height="820" as="geometry" />
        </mxCell>
        <mxCell id="RYeYa1yaHJqIqfBynArc-149" value="&lt;span style=&quot;color: rgba(0 , 0 , 0 , 0) ; font-family: monospace ; font-size: 0px&quot;&gt;%3CmxGraphModel%3E%3Croot%3E%3CmxCell%20id%3D%220%22%2F%3E%3CmxCell%20id%3D%221%22%20parent%3D%220%22%2F%3E%3CmxCell%20id%3D%222%22%20value%3D%22Base%20normalization%20and%20Relu%20block%22%20style%3D%22rounded%3D0%3BwhiteSpace%3Dwrap%3Bhtml%3D1%3B%22%20vertex%3D%221%22%20parent%3D%221%22%3E%3CmxGeometry%20x%3D%2288%22%20y%3D%22150%22%20width%3D%22120%22%20height%3D%2260%22%20as%3D%22geometry%22%2F%3E%3C%2FmxCell%3E%3C%2Froot%3E%3C%2FmxGraphModel%3E&lt;/span&gt;" style="rounded=0;whiteSpace=wrap;html=1;" vertex="1" parent="1">
          <mxGeometry x="1012.5" y="514" width="210" height="451" as="geometry" />
        </mxCell>
        <mxCell id="RYeYa1yaHJqIqfBynArc-150" style="edgeStyle=orthogonalEdgeStyle;rounded=0;orthogonalLoop=1;jettySize=auto;html=1;exitX=0.5;exitY=1;exitDx=0;exitDy=0;entryX=0.5;entryY=0;entryDx=0;entryDy=0;" edge="1" source="RYeYa1yaHJqIqfBynArc-151" target="RYeYa1yaHJqIqfBynArc-157" parent="1">
          <mxGeometry relative="1" as="geometry" />
        </mxCell>
        <mxCell id="RYeYa1yaHJqIqfBynArc-151" value="&lt;b&gt;1*1 convolution layer&lt;/b&gt;" style="rounded=0;whiteSpace=wrap;html=1;" vertex="1" parent="1">
          <mxGeometry x="1045" y="534" width="145" height="42" as="geometry" />
        </mxCell>
        <mxCell id="RYeYa1yaHJqIqfBynArc-152" style="edgeStyle=orthogonalEdgeStyle;rounded=0;orthogonalLoop=1;jettySize=auto;html=1;exitX=0.5;exitY=1;exitDx=0;exitDy=0;entryX=0.5;entryY=0;entryDx=0;entryDy=0;" edge="1" source="RYeYa1yaHJqIqfBynArc-153" target="RYeYa1yaHJqIqfBynArc-159" parent="1">
          <mxGeometry relative="1" as="geometry" />
        </mxCell>
        <mxCell id="RYeYa1yaHJqIqfBynArc-153" value="&lt;b&gt;3*3 convolution layer&lt;/b&gt;" style="rounded=0;whiteSpace=wrap;html=1;" vertex="1" parent="1">
          <mxGeometry x="1040" y="696" width="145" height="42" as="geometry" />
        </mxCell>
        <mxCell id="RYeYa1yaHJqIqfBynArc-154" style="edgeStyle=orthogonalEdgeStyle;rounded=0;orthogonalLoop=1;jettySize=auto;html=1;exitX=0.5;exitY=1;exitDx=0;exitDy=0;entryX=0.5;entryY=0;entryDx=0;entryDy=0;" edge="1" source="RYeYa1yaHJqIqfBynArc-166" target="RYeYa1yaHJqIqfBynArc-163" parent="1">
          <mxGeometry relative="1" as="geometry" />
        </mxCell>
        <mxCell id="RYeYa1yaHJqIqfBynArc-155" value="&lt;b&gt;1*1 convolution layer&lt;/b&gt;" style="rounded=0;whiteSpace=wrap;html=1;" vertex="1" parent="1">
          <mxGeometry x="1040" y="886" width="145" height="42" as="geometry" />
        </mxCell>
        <mxCell id="RYeYa1yaHJqIqfBynArc-156" style="edgeStyle=orthogonalEdgeStyle;rounded=0;orthogonalLoop=1;jettySize=auto;html=1;exitX=0.5;exitY=1;exitDx=0;exitDy=0;entryX=0.5;entryY=0;entryDx=0;entryDy=0;" edge="1" source="RYeYa1yaHJqIqfBynArc-157" target="RYeYa1yaHJqIqfBynArc-153" parent="1">
          <mxGeometry relative="1" as="geometry" />
        </mxCell>
        <mxCell id="RYeYa1yaHJqIqfBynArc-157" value="Base normalization and Relu block" style="rounded=0;whiteSpace=wrap;html=1;" vertex="1" parent="1">
          <mxGeometry x="1058" y="616" width="120" height="50" as="geometry" />
        </mxCell>
        <mxCell id="RYeYa1yaHJqIqfBynArc-158" style="edgeStyle=orthogonalEdgeStyle;rounded=0;orthogonalLoop=1;jettySize=auto;html=1;exitX=0.5;exitY=1;exitDx=0;exitDy=0;" edge="1" source="RYeYa1yaHJqIqfBynArc-159" target="RYeYa1yaHJqIqfBynArc-155" parent="1">
          <mxGeometry relative="1" as="geometry" />
        </mxCell>
        <mxCell id="RYeYa1yaHJqIqfBynArc-159" value="Base normalization and Relu block" style="rounded=0;whiteSpace=wrap;html=1;" vertex="1" parent="1">
          <mxGeometry x="1052.5" y="786" width="120" height="50" as="geometry" />
        </mxCell>
        <mxCell id="RYeYa1yaHJqIqfBynArc-160" style="edgeStyle=orthogonalEdgeStyle;rounded=0;orthogonalLoop=1;jettySize=auto;html=1;exitX=0.5;exitY=1;exitDx=0;exitDy=0;" edge="1" parent="1">
          <mxGeometry relative="1" as="geometry">
            <mxPoint x="1114.5" y="485" as="sourcePoint" />
            <mxPoint x="1115.4827586206898" y="534" as="targetPoint" />
            <Array as="points">
              <mxPoint x="1120" y="485" />
              <mxPoint x="1120" y="509" />
              <mxPoint x="1115" y="509" />
            </Array>
          </mxGeometry>
        </mxCell>
        <mxCell id="RYeYa1yaHJqIqfBynArc-161" style="edgeStyle=orthogonalEdgeStyle;rounded=0;orthogonalLoop=1;jettySize=auto;html=1;exitX=0.5;exitY=1;exitDx=0;exitDy=0;entryX=1;entryY=0.5;entryDx=0;entryDy=0;" edge="1" parent="1">
          <mxGeometry relative="1" as="geometry">
            <mxPoint x="1137.5" y="1031" as="targetPoint" />
            <mxPoint x="1154.5" y="485" as="sourcePoint" />
            <Array as="points">
              <mxPoint x="1120" y="485" />
              <mxPoint x="1120" y="500" />
              <mxPoint x="1328" y="500" />
              <mxPoint x="1328" y="1031" />
            </Array>
          </mxGeometry>
        </mxCell>
        <mxCell id="RYeYa1yaHJqIqfBynArc-162" value="&lt;b&gt;INPUT&lt;/b&gt;" style="rounded=0;whiteSpace=wrap;html=1;" vertex="1" parent="1">
          <mxGeometry x="1054" y="455" width="125" height="30" as="geometry" />
        </mxCell>
        <mxCell id="RYeYa1yaHJqIqfBynArc-163" value="&lt;b&gt;OUTPUT&lt;/b&gt;" style="rounded=0;whiteSpace=wrap;html=1;" vertex="1" parent="1">
          <mxGeometry x="1051" y="1135" width="123" height="30" as="geometry" />
        </mxCell>
        <mxCell id="RYeYa1yaHJqIqfBynArc-164" value="&lt;b&gt;(W,R,R)&lt;/b&gt;" style="text;html=1;strokeColor=none;fillColor=none;align=center;verticalAlign=middle;whiteSpace=wrap;rounded=0;" vertex="1" parent="1">
          <mxGeometry x="1194" y="455" width="80" height="25" as="geometry" />
        </mxCell>
        <mxCell id="RYeYa1yaHJqIqfBynArc-165" value="&lt;b&gt;(W,R,R)&lt;/b&gt;" style="text;html=1;strokeColor=none;fillColor=none;align=center;verticalAlign=middle;whiteSpace=wrap;rounded=0;" vertex="1" parent="1">
          <mxGeometry x="1190" y="1075" width="80" height="25" as="geometry" />
        </mxCell>
        <mxCell id="RYeYa1yaHJqIqfBynArc-166" value="&lt;b&gt;RELU&lt;/b&gt;" style="rounded=0;whiteSpace=wrap;html=1;" vertex="1" parent="1">
          <mxGeometry x="1052.5" y="1070" width="120" height="30" as="geometry" />
        </mxCell>
        <mxCell id="RYeYa1yaHJqIqfBynArc-167" style="edgeStyle=orthogonalEdgeStyle;rounded=0;orthogonalLoop=1;jettySize=auto;html=1;exitX=0.5;exitY=1;exitDx=0;exitDy=0;entryX=0.5;entryY=0;entryDx=0;entryDy=0;" edge="1" source="RYeYa1yaHJqIqfBynArc-168" target="RYeYa1yaHJqIqfBynArc-166" parent="1">
          <mxGeometry relative="1" as="geometry">
            <mxPoint x="1112.5" y="928" as="sourcePoint" />
            <mxPoint x="1112.4999999999998" y="1075" as="targetPoint" />
            <Array as="points">
              <mxPoint x="1113" y="995" />
              <mxPoint x="1113" y="995" />
            </Array>
          </mxGeometry>
        </mxCell>
        <mxCell id="RYeYa1yaHJqIqfBynArc-168" value="&lt;b&gt;ADD&lt;/b&gt;" style="rounded=0;whiteSpace=wrap;html=1;" vertex="1" parent="1">
          <mxGeometry x="1087.5" y="1015" width="50" height="30" as="geometry" />
        </mxCell>
        <mxCell id="RYeYa1yaHJqIqfBynArc-169" style="edgeStyle=orthogonalEdgeStyle;rounded=0;orthogonalLoop=1;jettySize=auto;html=1;exitX=0.5;exitY=1;exitDx=0;exitDy=0;entryX=0.5;entryY=0;entryDx=0;entryDy=0;" edge="1" source="RYeYa1yaHJqIqfBynArc-155" target="RYeYa1yaHJqIqfBynArc-168" parent="1">
          <mxGeometry relative="1" as="geometry">
            <mxPoint x="1112.5" y="928" as="sourcePoint" />
            <mxPoint x="1113" y="1015" as="targetPoint" />
            <Array as="points" />
          </mxGeometry>
        </mxCell>
        <mxCell id="RYeYa1yaHJqIqfBynArc-170" value="&lt;b&gt;&lt;font style=&quot;font-size: 14px&quot;&gt;Standard Block with stride=1&lt;/font&gt;&lt;/b&gt;" style="text;html=1;strokeColor=none;fillColor=none;align=center;verticalAlign=middle;whiteSpace=wrap;rounded=0;" vertex="1" parent="1">
          <mxGeometry x="1060" y="1190" width="150" height="20" as="geometry" />
        </mxCell>
        <mxCell id="RYeYa1yaHJqIqfBynArc-171" value="" style="rounded=0;whiteSpace=wrap;html=1;" vertex="1" parent="1">
          <mxGeometry x="1560" y="50" width="200" height="210" as="geometry" />
        </mxCell>
        <mxCell id="RYeYa1yaHJqIqfBynArc-172" value="" style="rounded=0;whiteSpace=wrap;html=1;" vertex="1" parent="1">
          <mxGeometry x="1580" y="70" width="160" height="120" as="geometry" />
        </mxCell>
        <mxCell id="RYeYa1yaHJqIqfBynArc-173" style="edgeStyle=orthogonalEdgeStyle;rounded=0;orthogonalLoop=1;jettySize=auto;html=1;exitX=0.5;exitY=1;exitDx=0;exitDy=0;" edge="1" source="RYeYa1yaHJqIqfBynArc-175" target="RYeYa1yaHJqIqfBynArc-172" parent="1">
          <mxGeometry relative="1" as="geometry" />
        </mxCell>
        <mxCell id="RYeYa1yaHJqIqfBynArc-174" style="edgeStyle=orthogonalEdgeStyle;rounded=0;orthogonalLoop=1;jettySize=auto;html=1;exitX=0.5;exitY=1;exitDx=0;exitDy=0;" edge="1" source="RYeYa1yaHJqIqfBynArc-175" parent="1">
          <mxGeometry relative="1" as="geometry">
            <mxPoint x="1660" y="140" as="targetPoint" />
          </mxGeometry>
        </mxCell>
        <mxCell id="RYeYa1yaHJqIqfBynArc-175" value="&lt;b&gt;Base Normailzation&lt;/b&gt;" style="rounded=0;whiteSpace=wrap;html=1;" vertex="1" parent="1">
          <mxGeometry x="1600" y="90" width="120" height="30" as="geometry" />
        </mxCell>
        <mxCell id="RYeYa1yaHJqIqfBynArc-176" style="edgeStyle=orthogonalEdgeStyle;rounded=0;orthogonalLoop=1;jettySize=auto;html=1;exitX=0.5;exitY=1;exitDx=0;exitDy=0;" edge="1" source="RYeYa1yaHJqIqfBynArc-177" parent="1">
          <mxGeometry relative="1" as="geometry">
            <mxPoint x="1660" y="200" as="targetPoint" />
          </mxGeometry>
        </mxCell>
        <mxCell id="RYeYa1yaHJqIqfBynArc-177" value="&lt;b&gt;Relu Activation&lt;/b&gt;" style="rounded=0;whiteSpace=wrap;html=1;" vertex="1" parent="1">
          <mxGeometry x="1600" y="140" width="120" height="30" as="geometry" />
        </mxCell>
        <mxCell id="RYeYa1yaHJqIqfBynArc-178" value="&lt;b&gt;&lt;font style=&quot;font-size: 15px&quot;&gt;Base normalization and Relu block&lt;/font&gt;&lt;/b&gt;" style="text;html=1;strokeColor=none;fillColor=none;align=center;verticalAlign=middle;whiteSpace=wrap;rounded=0;" vertex="1" parent="1">
          <mxGeometry x="1577" y="216" width="180" height="20" as="geometry" />
        </mxCell>
        <mxCell id="RYeYa1yaHJqIqfBynArc-179" style="edgeStyle=orthogonalEdgeStyle;rounded=0;orthogonalLoop=1;jettySize=auto;html=1;exitX=0.5;exitY=1;exitDx=0;exitDy=0;" edge="1" source="RYeYa1yaHJqIqfBynArc-178" target="RYeYa1yaHJqIqfBynArc-178" parent="1">
          <mxGeometry relative="1" as="geometry" />
        </mxCell>
      </root>
    </mxGraphModel>
  </diagram>
</mxfile>
